<svg width="4335" height="549" viewBox="0 0 4335 549" fill="none" xmlns="http://www.w3.org/2000/svg">
<path d="M1370.47 373.672C1356.22 387.599 1338.18 398.327 1316.25 405.854C1291.82 414.254 1263.78 418.436 1232.11 418.436C1200.44 418.436 1171.28 413.09 1147.28 402.327C1123.32 391.599 1104.92 375.527 1092.12 354.036C1079.32 332.581 1072.92 305.999 1072.92 274.254C1072.92 242.509 1078.74 216.4 1090.37 195.891C1102.01 175.382 1118.62 159.963 1140.3 149.709C1161.93 139.454 1187.64 134.327 1217.46 134.327C1241.64 134.327 1263.53 137.236 1283.09 143.091C1302.65 148.945 1319.05 157.309 1332.33 168.291C1345.6 179.272 1354.29 192.436 1358.51 207.818H1521.85C1514.39 167.236 1497.63 131.309 1471.59 100.036C1445.52 68.7999 1411.2 44.2908 1368.62 26.5818C1326.04 8.83635 1275.16 0 1216.08 0C1173.24 0 1133.35 5.96362 1096.33 17.8545C1059.32 29.7454 1026.74 47.2363 998.593 70.3271C970.412 93.418 948.558 122 932.959 156.036C917.359 190.109 909.578 229.527 909.578 274.29C909.578 319.054 917.359 358.508 932.959 392.545C948.558 426.617 970.085 455.163 997.538 478.254C1024.99 501.345 1056.63 518.835 1092.48 530.763C1128.3 542.654 1166.7 548.617 1207.68 548.617C1251.42 548.617 1289.56 542.217 1322.18 529.381C1354.76 516.545 1381.74 498.836 1403.16 476.181C1404 475.308 1404.8 474.436 1405.6 473.526V548.581H1526.72V260.29H1244.69V373.672H1370.47Z" />
<path d="M1816.45 11.8545L1577.3 548.581H1750.75L1795.36 442.217H2052.74L2097.17 548.581H2271.38L2031.46 11.8545H1816.45ZM1849.98 312.072L1924.27 135.018L1998.3 312.072H1849.98Z" />
<path d="M2715.15 374.836L2572.53 11.8545H2321.89V548.581H2476.17V154.691L2633.95 548.581H2795.91L2952.99 153.818V548.581H3107.97V11.8545H2856.63L2715.15 374.836Z" />
<path d="M3178.69 11.8545V548.581H3675.08V418.399H3351.41V337.599H3650.64V222.836H3351.41V142.036H3675.08V11.8545H3178.69Z" />
<path d="M3745.8 11.8545V139.236H4074.88L3809.29 548.581H3997.32L4334.72 11.8545H3745.8Z" />
<path d="M0 0L145.069 222.258H333.01L290.323 156.829H425.795L264.088 404.649L358.022 548.548L716.044 0H0Z" />
</svg>
